<?xml version="1.0" standalone="yes"?>
<svg width="200" height="200">
<path style="fill:#47704c; stroke:none;" d="M0 0L0 200L200 200L200 0L0 0z"/>
<path style="fill:#dcdbdd; stroke:none;" d="M96 6L96 24L80 24L80 30L96 30L96 48C105.751 47.6798 103 37.389 103 30L119 30L119 24L103 24L103 6L96 6M45 24L45 50L21 50L21 59L45 59L45 85L54 85L54 59L78 59L78 50L54 50L54 24L45 24M144 24L144 50L120 50L120 59L144 59L144 85L154 85L154 59L177 59L177 50L154 50C154 38.7781 158.469 24.0112 144 24M93 67L93 95L67 95L67 106L93 106L93 135L105 135L105 106L131 106L131 95L105 95L105 67L93 67M171 79L171 97L155 97L155 105L171 105L171 123L179 123L179 105L195 105L195 97L179 97L179 79L171 79M18 98L3 98L3 104L18 104L18 121L25 121L25 104L41 104L41 98L25 98L25 80C15.2492 80.3202 18 90.611 18 98M45 116L45 142L21 142L21 151L45 151L45 177L54 177L54 151L78 151L78 142L54 142L54 116L45 116M144 116L144 142L120 142L120 151L144 151L144 177C158.469 176.989 154 162.222 154 151L177 151L177 142L154 142C154 130.778 158.469 116.011 144 116M95 153L95 171L79 171L79 179L95 179L95 196L104 196L104 179C112.04 179 119.88 181.117 120 171L104 171L104 153L95 153z"/>
</svg>
